# xmcd
#
# Track frame offsets: 
#        150
#        5230
#        10807
#        18423
#        23660
#        30289
#        38552
#        49443
#        55967
#        61363
#        68674
#        76467
#        82155
#        88781
#        95039
#        100309
#        105933
#        114438
#        120675
#        125386
#        132479
#        138140
#        142400
#        150180
#        157353
#        169080
#        177351
#        184976
#        196229
#        202030
#
# Disc length: 2809 seconds
#
# Revision: 0
# Processed by: cddbd v1.5.2PL0 Copyright (c) Steve Scherf et al.
# Submitted via: ExactAudioCopy v1.1
#
DISCID=a20af71e
DTITLE=Various Artist - Bluegrass Fiddle_30 Instrumental Classics
DYEAR=2015
DGENRE=Bluegrass
TTITLE0=Mutt Poston  -  Fire On The Mountain
TTITLE1=Dewayne Wear  -  Little Liza Jane
TTITLE2=Mutt Poston  - Black Mountain Rag 
TTITLE3=Dale Potter  - Beaumont Rag
TTITLE4=Dewayne Wear  - Cripple Creek
TTITLE5=Mutt Poston  - Down Yonder 
TTITLE6=Clarence "Tater" Tate  -  Teetotalers Reel
TTITLE7=Dewayne Wear   -  Boil Them Cabbage Down
TTITLE8=Mutt Poston  -  Sally Goodin' 
TTITLE9=Vassar Clements  -  Old Clem
TTITLE10=Dewayne Wear  -  Eighth Of January
TTITLE11=Mutt Poston  - Old Joe Clark 
TTITLE12=Buck Ryan  -  Kingdom Coming
TTITLE13=Dewayne Wear  -  Flop Eared Mule
TTITLE14=Mutt Poston  -  Arkansas Traveler
TTITLE15=Dale Potter  -  Corina
TTITLE16=Dewayne Wear  -  Cindy
TTITLE17=Mutt Poston  -  Gray Eagle
TTITLE18=Clearence "Tater" Tate  -  Prosperity Special
TTITLE19=Dewayne Wear  -  Old Dan Tucker 
TTITLE20=Mutt Poston  -  Buffalo Gals 
TTITLE21=Dale Potter -  Don't Let Your Deal Go Down
TTITLE22=Dewayne Wear  -  Ida Red
TTITLE23=Mutt Poston  -  Red Wing
TTITLE24=Clarence "Tater" Tate  -  Life In The Finland Woods
TTITLE25=Dewayne Wear  - Rubber Dolly
TTITLE26=Mutt Poston  -  Billy In The Low Ground
TTITLE27=Clarence "Tater" Tate  -  Irene Waltz
TTITLE28=Dewayne Wear  -  Fisher's Hornpipe
TTITLE29=Mutt Poston  -  Orange Blossom Special
EXTD=
EXTT0=
EXTT1=
EXTT2=
EXTT3=
EXTT4=
EXTT5=
EXTT6=
EXTT7=
EXTT8=
EXTT9=
EXTT10=
EXTT11=
EXTT12=
EXTT13=
EXTT14=
EXTT15=
EXTT16=
EXTT17=
EXTT18=
EXTT19=
EXTT20=
EXTT21=
EXTT22=
EXTT23=
EXTT24=
EXTT25=
EXTT26=
EXTT27=
EXTT28=
EXTT29=
PLAYORDER=
